<svg id="wave" style="transform:rotate(180deg); transition: 0.3s" viewBox="0 0 1440 490" version="1.1" xmlns="http://www.w3.org/2000/svg"><defs><linearGradient id="sw-gradient-0" x1="0" x2="0" y1="1" y2="0"><stop stop-color="rgba(0, 0, 0, 1)" offset="0%"></stop><stop stop-color="rgba(0, 0, 0, 1)" offset="100%"></stop></linearGradient></defs>
<clipPath id="path">
<path style="transform:translate(0, 0px); opacity:1" fill="url(#sw-gradient-0)" d="M0,98L240,89.8C480,82,960,65,1440,122.5C1920,180,2400,310,2880,334.8C3360,359,3840,278,4320,220.5C4800,163,5280,131,5760,122.5C6240,114,6720,131,7200,147C7680,163,8160,180,8640,204.2C9120,229,9600,261,10080,302.2C10560,343,11040,392,11520,392C12000,392,12480,343,12960,318.5C13440,294,13920,294,14400,310.3C14880,327,15360,359,15840,343C16320,327,16800,261,17280,261.3C17760,261,18240,327,18720,310.3C19200,294,19680,196,20160,196C20640,196,21120,294,21600,285.8C22080,278,22560,163,23040,98C23520,33,24000,16,24480,24.5C24960,33,25440,65,25920,114.3C26400,163,26880,229,27360,269.5C27840,310,28320,327,28800,343C29280,359,29760,376,30240,351.2C30720,327,31200,261,31680,212.3C32160,163,32640,131,33120,138.8C33600,147,34080,196,34320,220.5L34560,245L34560,490L34320,490C34080,490,33600,490,33120,490C32640,490,32160,490,31680,490C31200,490,30720,490,30240,490C29760,490,29280,490,28800,490C28320,490,27840,490,27360,490C26880,490,26400,490,25920,490C25440,490,24960,490,24480,490C24000,490,23520,490,23040,490C22560,490,22080,490,21600,490C21120,490,20640,490,20160,490C19680,490,19200,490,18720,490C18240,490,17760,490,17280,490C16800,490,16320,490,15840,490C15360,490,14880,490,14400,490C13920,490,13440,490,12960,490C12480,490,12000,490,11520,490C11040,490,10560,490,10080,490C9600,490,9120,490,8640,490C8160,490,7680,490,7200,490C6720,490,6240,490,5760,490C5280,490,4800,490,4320,490C3840,490,3360,490,2880,490C2400,490,1920,490,1440,490C960,490,480,490,240,490L0,490Z"></path>
</clipPath>
</svg>